<svg width="437" height="162" viewBox="0 0 437 162" fill="none" xmlns="http://www.w3.org/2000/svg">
<path d="M12.1799 49C11.7876 49 11.5915 48.7891 11.5915 48.3673V22.8887H2.58843C2.19615 22.8887 2 22.7161 2 22.3711V18.5751C2 18.1917 2.19615 18 2.58843 18H26.3612C26.7143 18 26.8908 18.1917 26.8908 18.5751V22.3135C26.8908 22.697 26.7143 22.8887 26.3612 22.8887H17.3582V48.3673C17.3582 48.7891 17.162 49 16.7697 49H12.1799ZM33.2298 49C32.7983 49 32.5825 48.7891 32.5825 48.3673V18.6327C32.5825 18.2109 32.7983 18 33.2298 18H37.7607C38.1923 18 38.408 18.2109 38.408 18.6327V30.7681H53.0601V18.6327C53.0601 18.2109 53.2757 18 53.7074 18H58.2384C58.6696 18 58.8857 18.2109 58.8857 18.6327V48.3673C58.8857 48.7891 58.6696 49 58.2384 49H53.7074C53.2757 49 53.0601 48.7891 53.0601 48.3673V35.6568H38.408V48.3673C38.408 48.7891 38.1923 49 37.7607 49H33.2298ZM68.0521 49C67.6595 49 67.4636 48.8083 67.4636 48.4249V18.5751C67.4636 18.1917 67.6595 18 68.0521 18H87.4704C87.8235 18 88 18.1917 88 18.5751V22.256C88 22.6394 87.8235 22.8312 87.4704 22.8312H73.2891V30.8831H86.2347C86.5878 30.8831 86.7643 31.0748 86.7643 31.4583V35.0241C86.7643 35.4075 86.5878 35.5993 86.2347 35.5993H73.2891V44.1688H87.4704C87.8235 44.1688 88 44.3606 88 44.744V48.4249C88 48.8083 87.8235 49 87.4704 49H68.0521Z" fill="#220202"/>
<path d="M10.6052 155.823C9.24928 155.823 8.57129 155.145 8.57129 153.79V62.7742C8.57129 61.4195 9.24928 60.7419 10.6052 60.7419H71.0414C72.3007 60.7419 72.93 61.4195 72.93 62.7742V79.4677C72.93 80.8224 72.3007 81.5 71.0414 81.5H32.5424V99.5H65.5208C66.78 99.5 67.4094 100.178 67.4094 101.532V117.79C67.4094 119.049 66.78 119.677 65.5208 119.677H32.5424V153.79C32.5424 155.145 31.9128 155.823 30.6537 155.823H10.6052ZM123.139 157.565C109.579 157.565 99.3127 154.371 92.3393 147.984C85.3659 141.597 81.8792 132.161 81.8792 119.677V96.8871C81.8792 84.3063 85.3659 74.8708 92.3393 68.5806C99.3127 62.1935 109.579 59 123.139 59C136.698 59 146.964 62.1935 153.938 68.5806C161.008 74.8708 164.543 84.3063 164.543 96.8871V119.677C164.543 132.161 161.008 141.597 153.938 147.984C146.964 154.371 136.698 157.565 123.139 157.565ZM123.139 136.661C129.047 136.661 133.405 135.065 136.214 131.871C139.119 128.677 140.572 124.08 140.572 118.081V98.4839C140.572 92.4841 139.119 87.8871 136.214 84.6935C133.405 81.5 129.047 79.9032 123.139 79.9032C117.327 79.9032 112.969 81.5 110.063 84.6935C107.255 87.8871 105.85 92.4841 105.85 98.4839V118.081C105.85 124.08 107.255 128.677 110.063 131.871C112.969 135.065 117.327 136.661 123.139 136.661ZM181.989 155.823C180.634 155.823 179.955 155.145 179.955 153.79V62.7742C179.955 61.4195 180.634 60.7419 181.989 60.7419H215.549C229.205 60.7419 239.036 63.403 245.041 68.7258C251.045 74.0486 254.048 81.6452 254.048 91.5161C254.048 97.9032 252.692 103.371 249.98 107.919C247.268 112.468 242.91 115.661 236.905 117.5V117.79L259.278 153.355C259.762 154.032 259.859 154.613 259.569 155.097C259.278 155.58 258.745 155.823 257.97 155.823H235.597C234.532 155.823 233.709 155.387 233.128 154.516L213.37 121.129H203.927V153.79C203.927 155.145 203.248 155.823 201.893 155.823H181.989ZM203.927 102.403H215.549C220.391 102.403 224.023 101.58 226.445 99.9355C228.866 98.1935 230.077 95.4355 230.077 91.6613C230.077 87.9841 228.963 85.3224 226.735 83.6774C224.604 81.9355 221.07 81.0645 216.13 81.0645H203.927V102.403ZM304.079 157.565C296.911 157.565 290.471 156.161 284.756 153.355C279.139 150.549 274.732 146.339 271.536 140.726C268.34 135.113 266.742 128.049 266.742 119.532V97.0323C266.742 84.2581 270.374 74.7256 277.638 68.4355C284.998 62.1454 295.071 59 307.856 59C317.347 59 325.192 60.4516 331.391 63.3548C337.686 66.2581 342.19 70.1774 344.902 75.1129C347.711 80.0484 348.728 85.5163 347.953 91.5161C347.759 92.8708 347.081 93.5484 345.919 93.5484L325.87 93.4032C324.708 93.4032 324.127 92.6774 324.127 91.2258C324.224 88.9032 323.74 86.871 322.674 85.129C321.609 83.3871 319.865 82.0325 317.444 81.0645C315.12 80.0966 312.02 79.6129 308.146 79.6129C302.432 79.6129 298.073 81.0645 295.071 83.9677C292.166 86.871 290.713 91.6131 290.713 98.1935V118.371C290.713 124.951 292.262 129.694 295.362 132.597C298.461 135.5 302.965 136.952 308.873 136.952C314.199 136.952 318.219 135.887 320.931 133.758C323.74 131.532 325.144 128.339 325.144 124.177V120.548H309.163C307.807 120.548 307.129 119.871 307.129 118.516V106.613C307.129 105.258 307.807 104.581 309.163 104.581H346.21C346.791 104.581 347.227 104.774 347.517 105.161C347.904 105.452 348.098 105.935 348.098 106.613V130.855C348.098 134.436 348.146 138.355 348.243 142.613C348.437 146.774 348.873 150.452 349.551 153.645C349.745 154.323 349.599 154.855 349.115 155.242C348.728 155.629 348.243 155.823 347.662 155.823H331.682C331.101 155.823 330.665 155.677 330.374 155.387C330.084 155.097 329.841 154.613 329.648 153.935C329.357 152.871 329.163 151.468 329.067 149.726C328.97 147.984 328.873 146.435 328.776 145.081H328.486C327.129 147.403 325.338 149.532 323.11 151.468C320.979 153.307 318.364 154.758 315.265 155.823C312.165 156.984 308.437 157.565 304.079 157.565ZM367.703 155.823C366.347 155.823 365.669 155.145 365.669 153.79V62.7742C365.669 61.4195 366.347 60.7419 367.703 60.7419H428.139C429.398 60.7419 430.028 61.4195 430.028 62.7742V79.4677C430.028 80.8224 429.398 81.5 428.139 81.5H389.64V98.1935H424.652C425.912 98.1935 426.541 98.8712 426.541 100.226V115.758C426.541 117.113 425.912 117.79 424.652 117.79H389.64V135.065H428.139C429.398 135.065 430.028 135.742 430.028 137.097V153.79C430.028 155.145 429.398 155.823 428.139 155.823H367.703Z" fill="#220202"/>
</svg>
