<?xml version="1.0" standalone="no"?>
<!DOCTYPE svg PUBLIC "-//W3C//DTD SVG 20010904//EN"
 "http://www.w3.org/TR/2001/REC-SVG-20010904/DTD/svg10.dtd">
<svg version="1.0" xmlns="http://www.w3.org/2000/svg"
 width="350.000000pt" height="350.000000pt" viewBox="0 0 350.000000 350.000000"
 preserveAspectRatio="xMidYMid meet">
<metadata>
Created by potrace 1.14, written by Peter Selinger 2001-2017
</metadata>
<g transform="translate(0.000000,350.000000) scale(0.100000,-0.100000)"
fill="#000000" stroke="none">
<path d="M1147 2688 c-16 -12 -17 -74 -15 -983 l3 -970 240 0 240 0 3 372 2
373 358 2 357 3 0 200 0 200 -355 5 -355 5 0 185 0 185 409 3 c313 2 412 5
418 15 11 17 10 379 -2 397 -8 13 -93 15 -647 18 -504 2 -642 0 -656 -10z"/>
</g>
</svg>
